<?xml version="1.0" encoding="UTF-8"?>
<svg xmlns="http://www.w3.org/2000/svg" xmlns:xlink="http://www.w3.org/1999/xlink" width="96px" height="96px" viewBox="0 0 96 96" version="1.1">
<g id="surface1">
<path style=" stroke:none;fill-rule:nonzero;fill:rgb(0%,56.862745%,88.627451%);fill-opacity:1;" d="M 96 48 C 96 74.507812 74.507812 96 48 96 C 21.492188 96 0 74.507812 0 48 C 0 21.492188 21.492188 0 48 0 C 74.507812 0 96 21.492188 96 48 Z M 96 48 "/>
<path style=" stroke:none;fill-rule:nonzero;fill:rgb(100%,100%,100%);fill-opacity:1;" d="M 77.558594 43.265625 C 77.410156 43.144531 76.050781 42.121094 73.179688 42.121094 C 72.421875 42.121094 71.664062 42.179688 70.914062 42.320312 C 70.359375 38.503906 67.210938 36.648438 67.070312 36.5625 L 66.300781 36.113281 L 65.792969 36.84375 C 65.15625 37.828125 64.695312 38.90625 64.425781 40.050781 C 63.910156 42.226562 64.21875 44.269531 65.324219 46.011719 C 63.992188 46.753906 61.847656 46.941406 61.414062 46.949219 L 25.96875 46.949219 C 25.039062 46.949219 24.289062 47.699219 24.289062 48.628906 C 24.253906 51.730469 24.777344 54.816406 25.835938 57.730469 C 27.054688 60.9375 28.875 63.289062 31.238281 64.734375 C 33.882812 66.355469 38.183594 67.285156 43.070312 67.285156 C 45.273438 67.292969 47.476562 67.085938 49.640625 66.683594 C 52.648438 66.132812 55.546875 65.082031 58.210938 63.570312 C 60.402344 62.296875 62.382812 60.683594 64.058594 58.78125 C 66.863281 55.601562 68.539062 52.058594 69.789062 48.917969 L 70.285156 48.917969 C 73.359375 48.917969 75.253906 47.691406 76.292969 46.660156 C 76.988281 46.003906 77.53125 45.207031 77.878906 44.316406 L 78.09375 43.667969 Z M 29.25 45.929688 L 34.003906 45.929688 C 34.226562 45.929688 34.414062 45.742188 34.414062 45.515625 L 34.414062 41.289062 C 34.414062 41.0625 34.226562 40.875 34.003906 40.867188 L 29.25 40.867188 C 29.023438 40.867188 28.835938 41.054688 28.835938 41.277344 L 28.835938 45.515625 C 28.835938 45.75 29.023438 45.929688 29.25 45.929688 M 35.804688 45.929688 L 40.554688 45.929688 C 40.78125 45.929688 40.96875 45.742188 40.96875 45.515625 L 40.96875 41.289062 C 40.96875 41.0625 40.78125 40.875 40.554688 40.867188 L 35.804688 40.867188 C 35.570312 40.867188 35.382812 41.054688 35.382812 41.289062 L 35.382812 45.515625 C 35.382812 45.75 35.570312 45.929688 35.804688 45.929688 M 42.441406 45.9375 L 47.195312 45.9375 C 47.417969 45.9375 47.605469 45.75 47.605469 45.523438 L 47.605469 41.296875 C 47.605469 41.070312 47.417969 40.882812 47.195312 40.875 L 42.441406 40.875 C 42.214844 40.875 42.027344 41.0625 42.027344 41.289062 L 42.027344 45.523438 C 42.027344 45.75 42.214844 45.929688 42.441406 45.9375 M 49.011719 45.9375 L 53.765625 45.9375 C 53.992188 45.9375 54.179688 45.75 54.1875 45.523438 L 54.1875 41.296875 C 54.1875 41.0625 54 40.875 53.765625 40.875 L 49.011719 40.875 C 48.789062 40.875 48.601562 41.0625 48.601562 41.289062 L 48.601562 45.523438 C 48.601562 45.75 48.777344 45.9375 49.011719 45.9375 M 35.792969 39.84375 L 40.546875 39.84375 C 40.773438 39.84375 40.960938 39.65625 40.960938 39.421875 L 40.960938 35.195312 C 40.960938 34.96875 40.773438 34.78125 40.546875 34.78125 L 35.792969 34.78125 C 35.558594 34.78125 35.382812 34.96875 35.371094 35.195312 L 35.371094 39.421875 C 35.382812 39.65625 35.570312 39.84375 35.792969 39.84375 M 42.441406 39.84375 L 47.195312 39.84375 C 47.417969 39.84375 47.605469 39.65625 47.605469 39.421875 L 47.605469 35.195312 C 47.605469 34.96875 47.417969 34.78125 47.195312 34.78125 L 42.441406 34.78125 C 42.214844 34.78125 42.027344 34.96875 42.027344 35.195312 L 42.027344 39.421875 C 42.027344 39.65625 42.214844 39.84375 42.441406 39.84375 M 49.011719 39.84375 L 53.765625 39.84375 C 54 39.84375 54.179688 39.65625 54.1875 39.421875 L 54.1875 35.195312 C 54.1875 34.960938 54 34.78125 53.765625 34.78125 L 49.011719 34.78125 C 48.789062 34.78125 48.601562 34.96875 48.601562 35.195312 L 48.601562 39.421875 C 48.601562 39.65625 48.777344 39.84375 49.011719 39.84375 M 49.011719 33.757812 L 53.765625 33.757812 C 54 33.757812 54.1875 33.570312 54.1875 33.335938 L 54.1875 29.101562 C 54.1875 28.875 54 28.6875 53.765625 28.6875 L 49.011719 28.6875 C 48.789062 28.6875 48.601562 28.875 48.601562 29.101562 L 48.601562 33.335938 C 48.601562 33.570312 48.777344 33.757812 49.011719 33.757812 M 55.632812 45.9375 L 60.382812 45.9375 C 60.609375 45.9375 60.796875 45.75 60.796875 45.523438 L 60.796875 41.296875 C 60.796875 41.0625 60.609375 40.882812 60.382812 40.875 L 55.632812 40.875 C 55.40625 40.875 55.21875 41.0625 55.21875 41.289062 L 55.21875 45.523438 C 55.21875 45.75 55.40625 45.9375 55.632812 45.9375 "/>
</g>
</svg>
