<?xml version="1.0" encoding="UTF-8"?>
<svg xmlns="http://www.w3.org/2000/svg" xmlns:xlink="http://www.w3.org/1999/xlink" width="96px" height="96px" viewBox="0 0 96 96" version="1.1">
<g id="surface1">
<path style=" stroke:none;fill-rule:nonzero;fill:rgb(60%,25.882353%,35.686275%);fill-opacity:1;" d="M 85.839844 47.136719 C 85.839844 42.21875 81.851562 38.226562 76.929688 38.226562 C 76.613281 38.226562 76.300781 38.246094 75.992188 38.277344 L 88.234375 2.175781 L 36.21875 2.175781 L 48.441406 38.246094 C 48.261719 38.234375 48.082031 38.226562 47.898438 38.226562 C 42.976562 38.226562 38.988281 42.21875 38.988281 47.136719 C 38.988281 51.117188 41.59375 54.484375 45.191406 55.628906 C 43.292969 58.921875 40.902344 61.886719 38.1875 64.449219 C 34.492188 67.933594 30.269531 70.574219 25.699219 72.199219 C 20.257812 69.40625 17.6875 63.191406 20.007812 57.738281 C 20.269531 57.125 20.535156 56.5 20.789062 55.878906 C 24.734375 54.957031 27.671875 51.425781 27.671875 47.203125 C 27.671875 42.28125 23.679688 38.292969 18.757812 38.292969 C 13.835938 38.292969 9.847656 42.28125 9.847656 47.203125 C 9.847656 50.21875 11.347656 52.886719 13.644531 54.5 C 11.4375 59.519531 8.195312 64.777344 7.1875 70.867188 C 5.976562 78.167969 7.183594 85.917969 13.496094 90.292969 C 28.199219 100.484375 44.164062 83.976562 60.992188 79.824219 C 67.089844 78.320312 73.785156 78.5625 79.160156 75.449219 C 83.195312 73.113281 85.855469 69.242188 86.609375 64.890625 C 87.355469 60.597656 86.269531 56.320312 83.769531 52.851562 C 85.0625 51.304688 85.839844 49.3125 85.839844 47.136719 "/>
<path style=" stroke:none;fill-rule:nonzero;fill:rgb(100%,100%,100%);fill-opacity:1;" d="M 84.464844 64.519531 C 83.8125 68.292969 81.480469 71.59375 78.070312 73.566406 C 74.890625 75.410156 71.082031 75.957031 67.046875 76.539062 C 64.886719 76.851562 62.652344 77.171875 60.472656 77.710938 C 54.699219 79.136719 49.109375 81.910156 43.703125 84.597656 C 32.886719 89.96875 23.546875 94.609375 14.734375 88.503906 C 8.285156 84.03125 8.582031 75.757812 9.332031 71.222656 C 10.03125 67.023438 11.914062 63.152344 13.734375 59.414062 C 14.050781 58.765625 14.359375 58.132812 14.65625 57.5 C 15.5625 57.863281 16.519531 58.109375 17.523438 58.21875 C 15.667969 64.339844 18.582031 70.992188 24.703125 74.136719 L 25.542969 74.566406 L 26.429688 74.25 C 31.265625 72.527344 35.726562 69.761719 39.679688 66.03125 C 42.234375 63.621094 44.433594 60.953125 46.238281 58.101562 C 46.78125 58.183594 47.335938 58.226562 47.898438 58.226562 C 53.515625 58.226562 58.167969 54.027344 58.886719 48.605469 C 61.1875 48.519531 63.628906 48.519531 65.941406 48.601562 C 66.660156 54.027344 71.3125 58.226562 76.929688 58.226562 C 79.277344 58.226562 81.457031 57.492188 83.25 56.242188 C 84.496094 58.789062 84.960938 61.660156 84.464844 64.519531 Z M 18.757812 40.46875 C 22.472656 40.46875 25.492188 43.488281 25.492188 47.203125 C 25.492188 48.535156 25.101562 49.78125 24.429688 50.828125 C 23.308594 52.574219 21.40625 53.769531 19.222656 53.921875 C 19.066406 53.929688 18.914062 53.9375 18.757812 53.9375 C 17.929688 53.9375 17.136719 53.785156 16.40625 53.511719 C 14.921875 52.957031 13.6875 51.894531 12.910156 50.535156 C 12.347656 49.550781 12.023438 48.414062 12.023438 47.203125 C 12.023438 43.488281 15.042969 40.46875 18.757812 40.46875 Z M 41.164062 47.140625 C 41.164062 43.765625 43.65625 40.960938 46.898438 40.476562 C 47.226562 40.429688 47.558594 40.402344 47.898438 40.402344 C 50.058594 40.402344 51.980469 41.425781 53.214844 43.011719 C 53.519531 43.40625 53.785156 43.832031 54 44.289062 C 54.40625 45.15625 54.632812 46.121094 54.632812 47.140625 C 54.632812 47.675781 54.570312 48.199219 54.449219 48.703125 C 53.792969 51.449219 51.449219 53.550781 48.578125 53.839844 C 48.355469 53.863281 48.128906 53.875 47.898438 53.875 C 46.554688 53.875 45.300781 53.476562 44.25 52.792969 C 42.394531 51.59375 41.164062 49.507812 41.164062 47.140625 Z M 69.273438 39.128906 C 67.832031 40.511719 66.757812 42.273438 66.222656 44.257812 C 63.730469 44.164062 61.085938 44.164062 58.605469 44.257812 C 58.035156 42.144531 56.855469 40.277344 55.265625 38.863281 L 62.234375 24.769531 Z M 39.253906 4.351562 L 85.195312 4.351562 L 74.34375 36.355469 C 73.875 36.46875 73.417969 36.613281 72.972656 36.78125 L 62.25 14.914062 L 51.5 36.652344 C 51.035156 36.492188 50.558594 36.363281 50.066406 36.265625 Z M 83.664062 47.140625 C 83.664062 47.8125 83.5625 48.464844 83.378906 49.082031 C 82.9375 50.546875 82.007812 51.800781 80.78125 52.660156 C 79.691406 53.421875 78.363281 53.875 76.929688 53.875 C 73.820312 53.875 71.195312 51.753906 70.425781 48.882812 C 70.277344 48.328125 70.195312 47.742188 70.195312 47.140625 C 70.195312 46.21875 70.378906 45.339844 70.714844 44.539062 C 70.890625 44.128906 71.105469 43.738281 71.351562 43.371094 C 72.566406 41.582031 74.609375 40.402344 76.929688 40.402344 C 77.140625 40.402344 77.351562 40.414062 77.558594 40.433594 C 80.980469 40.753906 83.664062 43.636719 83.664062 47.140625 Z M 88.019531 47.140625 C 88.019531 41.726562 84.117188 37.207031 78.980469 36.242188 L 91.269531 0 L 33.183594 0 L 45.488281 36.316406 C 40.53125 37.421875 36.8125 41.851562 36.8125 47.140625 C 36.8125 51.109375 38.910156 54.59375 42.054688 56.554688 C 40.539062 58.808594 38.746094 60.925781 36.691406 62.867188 C 33.433594 65.941406 29.800781 68.273438 25.886719 69.808594 C 21.945312 67.332031 20.277344 62.660156 22.007812 58.589844 L 22.144531 58.273438 C 22.230469 58.074219 22.316406 57.875 22.398438 57.671875 C 26.730469 56.164062 29.847656 52.042969 29.847656 47.203125 C 29.847656 41.089844 24.871094 36.113281 18.757812 36.113281 C 12.644531 36.113281 7.671875 41.089844 7.671875 47.203125 C 7.671875 50.289062 8.9375 53.082031 10.980469 55.09375 C 10.609375 55.882812 10.222656 56.6875 9.820312 57.507812 C 7.953125 61.339844 5.839844 65.6875 5.039062 70.511719 C 3.449219 80.09375 6.011719 87.753906 12.257812 92.082031 C 16.046875 94.707031 19.890625 95.738281 23.765625 95.738281 C 31.054688 95.738281 38.429688 92.078125 45.640625 88.496094 C 50.835938 85.914062 56.207031 83.246094 61.511719 81.9375 C 63.488281 81.453125 65.519531 81.160156 67.667969 80.847656 C 71.933594 80.234375 76.34375 79.597656 80.25 77.335938 C 84.777344 74.710938 87.878906 70.3125 88.753906 65.265625 C 89.507812 60.929688 88.601562 56.589844 86.394531 52.910156 C 87.421875 51.226562 88.019531 49.25 88.019531 47.140625 Z M 88.019531 47.140625 "/>
</g>
</svg>
