<?xml version="1.0" encoding="UTF-8"?>
<svg xmlns="http://www.w3.org/2000/svg" xmlns:xlink="http://www.w3.org/1999/xlink" width="96px" height="96px" viewBox="0 0 96 96" version="1.1">
<g id="surface1">
<path style=" stroke:none;fill-rule:nonzero;fill:rgb(26.666667%,65.882353%,70.196078%);fill-opacity:1;" d="M 27 41.101562 C 29.800781 29.898438 36.800781 24.300781 48 24.300781 C 64.800781 24.300781 66.898438 36.898438 75.300781 39 C 80.898438 40.398438 85.800781 38.300781 90 32.699219 C 87.199219 43.898438 80.199219 49.5 69 49.5 C 52.199219 49.5 50.101562 36.898438 41.699219 34.800781 C 36.101562 33.398438 31.199219 35.5 27 41.101562 Z M 6 66.300781 C 8.800781 55.101562 15.800781 49.5 27 49.5 C 43.800781 49.5 45.898438 62.101562 54.300781 64.199219 C 59.898438 65.601562 64.800781 63.5 69 57.898438 C 66.199219 69.101562 59.199219 74.699219 48 74.699219 C 31.199219 74.699219 29.101562 62.101562 20.699219 60 C 15.101562 58.601562 10.199219 60.699219 6 66.300781 Z M 6 66.300781 "/>
</g>
</svg>
