<?xml version="1.0" encoding="UTF-8"?>
<svg xmlns="http://www.w3.org/2000/svg" xmlns:xlink="http://www.w3.org/1999/xlink" width="96px" height="96px" viewBox="0 0 96 96" version="1.1">
<defs>
<linearGradient id="linear0" gradientUnits="userSpaceOnUse" x1="-0.0277778" y1="0.32" x2="1" y2="0.675556" gradientTransform="matrix(19.824219,0,0,11.894531,0,42)">
<stop offset="0" style="stop-color:rgb(13.333333%,59.607843%,74.117647%);stop-opacity:1;"/>
<stop offset="1" style="stop-color:rgb(5.490196%,84.313725%,70.980392%);stop-opacity:1;"/>
</linearGradient>
</defs>
<g id="surface1">
<path style=" stroke:none;fill-rule:nonzero;fill:url(#linear0);" d="M 9.914062 42 C 7.269531 42 5.617188 43.320312 4.957031 45.964844 C 5.949219 44.644531 7.105469 44.148438 8.425781 44.476562 C 9.179688 44.667969 9.71875 45.214844 10.316406 45.820312 C 11.289062 46.804688 12.410156 47.949219 14.867188 47.949219 C 17.511719 47.949219 19.164062 46.625 19.824219 43.984375 C 18.832031 45.304688 17.675781 45.800781 16.355469 45.46875 C 15.601562 45.28125 15.0625 44.734375 14.464844 44.128906 C 13.492188 43.140625 12.371094 42 9.914062 42 Z M 4.957031 47.949219 C 2.3125 47.949219 0.660156 49.269531 0 51.914062 C 0.992188 50.589844 2.148438 50.09375 3.46875 50.425781 C 4.222656 50.613281 4.761719 51.160156 5.359375 51.765625 C 6.332031 52.753906 7.457031 53.894531 9.914062 53.894531 C 12.554688 53.894531 14.207031 52.574219 14.867188 49.929688 C 13.878906 51.25 12.722656 51.746094 11.398438 51.417969 C 10.644531 51.226562 10.105469 50.679688 9.507812 50.074219 C 8.539062 49.089844 7.414062 47.949219 4.957031 47.949219 Z M 4.957031 47.949219 "/>
<path style=" stroke:none;fill-rule:nonzero;fill:rgb(17.647059%,21.568627%,28.235294%);fill-opacity:1;" d="M 29.734375 47.011719 L 28.007812 47.011719 L 28.007812 50.359375 C 28.007812 51.253906 28.59375 51.238281 29.734375 51.183594 L 29.734375 52.535156 C 27.421875 52.816406 26.5 52.175781 26.5 50.359375 L 26.5 47.011719 L 25.214844 47.011719 L 25.214844 45.5625 L 26.5 45.5625 L 26.5 43.6875 L 28.007812 43.242188 L 28.007812 45.5625 L 29.734375 45.5625 Z M 36.332031 45.5625 L 37.835938 45.5625 L 37.835938 52.535156 L 36.332031 52.535156 L 36.332031 51.53125 C 35.800781 52.273438 34.976562 52.71875 33.890625 52.71875 C 31.992188 52.71875 30.414062 51.113281 30.414062 49.050781 C 30.414062 46.96875 31.992188 45.378906 33.890625 45.378906 C 34.976562 45.378906 35.800781 45.828125 36.332031 46.550781 Z M 34.125 51.28125 C 35.382812 51.28125 36.332031 50.347656 36.332031 49.050781 C 36.332031 47.75 35.382812 46.816406 34.125 46.816406 C 32.871094 46.816406 31.921875 47.75 31.921875 49.050781 C 31.921875 50.347656 32.871094 51.28125 34.125 51.28125 Z M 40.347656 44.515625 C 39.816406 44.515625 39.386719 44.070312 39.386719 43.550781 C 39.386719 43.023438 39.816406 42.589844 40.347656 42.589844 C 40.878906 42.589844 41.3125 43.023438 41.3125 43.550781 C 41.3125 44.070312 40.878906 44.515625 40.347656 44.515625 Z M 39.59375 52.535156 L 39.59375 45.5625 L 41.101562 45.5625 L 41.101562 52.535156 Z M 42.84375 52.535156 L 42.84375 42.351562 L 44.351562 42.351562 L 44.351562 52.535156 Z M 54.132812 45.5625 L 55.722656 45.5625 L 53.53125 52.535156 L 52.054688 52.535156 L 50.601562 47.835938 L 49.136719 52.535156 L 47.660156 52.535156 L 45.46875 45.5625 L 47.058594 45.5625 L 48.410156 50.375 L 49.875 45.5625 L 51.3125 45.5625 L 52.765625 50.375 Z M 57.589844 44.515625 C 57.0625 44.515625 56.628906 44.070312 56.628906 43.550781 C 56.628906 43.023438 57.0625 42.589844 57.589844 42.589844 C 58.121094 42.589844 58.554688 43.023438 58.554688 43.550781 C 58.554688 44.070312 58.121094 44.515625 57.589844 44.515625 Z M 56.839844 52.535156 L 56.839844 45.5625 L 58.34375 45.5625 L 58.34375 52.535156 Z M 63.757812 45.378906 C 65.320312 45.378906 66.4375 46.441406 66.4375 48.253906 L 66.4375 52.535156 L 64.929688 52.535156 L 64.929688 48.40625 C 64.929688 47.347656 64.316406 46.789062 63.367188 46.789062 C 62.375 46.789062 61.59375 47.375 61.59375 48.796875 L 61.59375 52.535156 L 60.089844 52.535156 L 60.089844 45.5625 L 61.59375 45.5625 L 61.59375 46.453125 C 62.054688 45.730469 62.808594 45.378906 63.757812 45.378906 Z M 73.578125 42.769531 L 75.085938 42.769531 L 75.085938 52.535156 L 73.578125 52.535156 L 73.578125 51.53125 C 73.050781 52.273438 72.226562 52.71875 71.136719 52.71875 C 69.242188 52.71875 67.664062 51.113281 67.664062 49.050781 C 67.664062 46.96875 69.242188 45.378906 71.136719 45.378906 C 72.226562 45.378906 73.050781 45.828125 73.578125 46.550781 Z M 71.375 51.28125 C 72.628906 51.28125 73.578125 50.347656 73.578125 49.050781 C 73.578125 47.75 72.628906 46.816406 71.375 46.816406 C 70.121094 46.816406 69.171875 47.75 69.171875 49.050781 C 69.171875 50.347656 70.121094 51.28125 71.375 51.28125 Z M 80.136719 52.71875 C 78.03125 52.71875 76.453125 51.113281 76.453125 49.050781 C 76.453125 46.96875 78.03125 45.378906 80.136719 45.378906 C 81.503906 45.378906 82.6875 46.089844 83.246094 47.179688 L 81.949219 47.933594 C 81.644531 47.277344 80.960938 46.859375 80.121094 46.859375 C 78.894531 46.859375 77.960938 47.792969 77.960938 49.050781 C 77.960938 50.304688 78.894531 51.238281 80.121094 51.238281 C 80.960938 51.238281 81.644531 50.808594 81.976562 50.164062 L 83.273438 50.90625 C 82.6875 52.007812 81.503906 52.71875 80.136719 52.71875 Z M 85.757812 47.488281 C 85.757812 48.757812 89.511719 47.988281 89.511719 50.570312 C 89.511719 51.964844 88.296875 52.71875 86.789062 52.71875 C 85.394531 52.71875 84.390625 52.089844 83.945312 51.085938 L 85.242188 50.332031 C 85.464844 50.960938 86.023438 51.335938 86.789062 51.335938 C 87.460938 51.335938 87.976562 51.113281 87.976562 50.554688 C 87.976562 49.3125 84.222656 50.011719 84.222656 47.515625 C 84.222656 46.203125 85.355469 45.378906 86.777344 45.378906 C 87.921875 45.378906 88.871094 45.910156 89.359375 46.832031 L 88.089844 47.542969 C 87.835938 47 87.347656 46.746094 86.777344 46.746094 C 86.234375 46.746094 85.757812 46.984375 85.757812 47.488281 Z M 92.191406 47.488281 C 92.191406 48.757812 95.941406 47.988281 95.941406 50.570312 C 95.941406 51.964844 94.730469 52.71875 93.222656 52.71875 C 91.828125 52.71875 90.824219 52.089844 90.375 51.085938 L 91.671875 50.332031 C 91.898438 50.960938 92.453125 51.335938 93.222656 51.335938 C 93.890625 51.335938 94.40625 51.113281 94.40625 50.554688 C 94.40625 49.3125 90.65625 50.011719 90.65625 47.515625 C 90.65625 46.203125 91.785156 45.378906 93.207031 45.378906 C 94.351562 45.378906 95.300781 45.910156 95.789062 46.832031 L 94.519531 47.542969 C 94.269531 47 93.78125 46.746094 93.207031 46.746094 C 92.664062 46.746094 92.191406 46.984375 92.191406 47.488281 Z M 92.191406 47.488281 "/>
</g>
</svg>
