<?xml version="1.0" encoding="UTF-8"?>
<svg xmlns="http://www.w3.org/2000/svg" xmlns:xlink="http://www.w3.org/1999/xlink" width="96px" height="96px" viewBox="0 0 96 96" version="1.1">
<g id="surface1">
<path style=" stroke:none;fill-rule:nonzero;fill:rgb(0%,0%,0%);fill-opacity:1;" d="M 47.890625 42.558594 C 44.144531 42.558594 41.441406 45.003906 41.441406 48.671875 C 41.441406 52.335938 44.480469 54.78125 48.230469 54.78125 C 50.496094 54.78125 52.492188 53.886719 53.726562 52.375 L 51.128906 50.875 C 50.445312 51.625 49.402344 52.0625 48.230469 52.0625 C 46.605469 52.0625 45.222656 51.214844 44.710938 49.855469 L 54.222656 49.855469 C 54.296875 49.476562 54.34375 49.082031 54.34375 48.667969 C 54.34375 45.003906 51.640625 42.558594 47.890625 42.558594 Z M 44.679688 47.480469 C 45.105469 46.125 46.265625 45.273438 47.886719 45.273438 C 49.515625 45.273438 50.675781 46.125 51.097656 47.480469 Z M 84.453125 42.558594 C 80.707031 42.558594 78.003906 45.003906 78.003906 48.671875 C 78.003906 52.335938 81.046875 54.78125 84.792969 54.78125 C 87.058594 54.78125 89.054688 53.886719 90.292969 52.375 L 87.695312 50.875 C 87.007812 51.625 85.964844 52.0625 84.792969 52.0625 C 83.167969 52.0625 81.785156 51.214844 81.273438 49.855469 L 90.789062 49.855469 C 90.863281 49.476562 90.90625 49.082031 90.90625 48.667969 C 90.90625 45.003906 88.203125 42.558594 84.453125 42.558594 Z M 81.246094 47.480469 C 81.671875 46.125 82.832031 45.273438 84.453125 45.273438 C 86.082031 45.273438 87.242188 46.125 87.664062 47.480469 Z M 67.992188 48.671875 C 67.992188 50.707031 69.324219 52.066406 71.390625 52.066406 C 72.789062 52.066406 73.835938 51.429688 74.375 50.394531 L 76.984375 51.898438 C 75.90625 53.699219 73.882812 54.78125 71.390625 54.78125 C 67.636719 54.78125 64.9375 52.335938 64.9375 48.671875 C 64.9375 45.003906 67.640625 42.558594 71.390625 42.558594 C 73.882812 42.558594 75.902344 43.640625 76.984375 45.441406 L 74.375 46.945312 C 73.835938 45.910156 72.789062 45.273438 71.390625 45.273438 C 69.328125 45.273438 67.992188 46.632812 67.992188 48.671875 Z M 96 38.824219 L 96 54.441406 L 92.945312 54.441406 L 92.945312 38.824219 Z M 12.546875 37.125 L 25.09375 58.855469 L 0 58.855469 Z M 43.914062 38.824219 L 34.507812 55.121094 L 25.097656 38.824219 L 28.625 38.824219 L 34.507812 49.007812 L 40.386719 38.824219 Z M 63.917969 42.898438 L 63.917969 46.1875 C 63.578125 46.089844 63.21875 46.019531 62.832031 46.019531 C 60.859375 46.019531 59.4375 47.378906 59.4375 49.417969 L 59.4375 54.441406 L 56.378906 54.441406 L 56.378906 42.898438 L 59.4375 42.898438 L 59.4375 46.019531 C 59.4375 44.296875 61.441406 42.898438 63.917969 42.898438 Z M 63.917969 42.898438 "/>
</g>
</svg>
